<svg xmlns="http://www.w3.org/2000/svg" width="78.715" height="69.696"><g data-name="Сгруппировать 509" fill-rule="evenodd"><path data-name="Контур 264" d="M0 69.696h6.346V19.714L0 18.314v51.38z" fill="#1e1744" opacity=".2"/><path data-name="Контур 265" d="M8.527 69.696h7.811v-54.81l-7.811-1.972v56.783z" fill="#1e1744" opacity=".5"/><path data-name="Контур 266" d="M19.051 69.696h9.845V9.153l-9.845-2.915v63.454z" fill="#1e1744"/><path data-name="Контур 267" d="M78.714 16.06q-2.924-1.019-6-2.085l-14.126-4.9q-7.91-2.742-16.847-5.846c-3.009-1.043-6.106-2.12-9.32-3.231v69.7h46.3V16.06zM41.737 58.915V14.031q8.951 2.6 16.852 4.9l14.121 4.1v37.628l-14.121-.8c-5.275-.291-10.884-.606-16.851-.944z" fill="#ee1414"/></g></svg>